<?xml version="1.0" encoding="UTF-8"?><svg id="Layer_1" xmlns="http://www.w3.org/2000/svg" viewBox="0 0 353.15 204.64"><defs><style>.cls-1,.cls-2{fill:#ed1c24;}.cls-3,.cls-4{fill:#fbb040;}.cls-5,.cls-6,.cls-7{fill:#00a651;}.cls-8,.cls-9,.cls-10,.cls-11,.cls-12,.cls-13,.cls-14{fill:#231f20;}.cls-15,.cls-16{fill:#6d6e71;}.cls-17{fill:#58595b;}.cls-18,.cls-9,.cls-13{font-family:MyriadPro-Regular, 'Myriad Pro';}.cls-18,.cls-2,.cls-4,.cls-6,.cls-11,.cls-16,.cls-19,.cls-13{font-size:10px;}.cls-20{letter-spacing:-.07em;}.cls-10,.cls-21{stroke:#231f20;}.cls-10,.cls-21,.cls-22,.cls-23,.cls-24,.cls-25{stroke-miterlimit:10;}.cls-2,.cls-4,.cls-6,.cls-11,.cls-16,.cls-7,.cls-12{font-family:Helvetica, Helvetica;}.cls-12{font-size:12px;}.cls-21,.cls-22,.cls-23,.cls-24,.cls-25{fill:none;}.cls-22{stroke:#00a651;}.cls-23{stroke:#fbb040;}.cls-24{stroke:#ed1c24;}.cls-25{stroke:#6d6e71;}.cls-14{stroke-width:0px;}</style></defs><rect class="cls-21" x=".5" y="162.14" width="15" height="15"/><circle class="cls-21" cx="9" cy="145.64" r="7.5"/><line class="cls-21" x1="19.5" y1="158.14" x2="19.5" y2="193.14"/><line class="cls-21" x1="9" y1="158.14" x2="19.5" y2="158.14"/><line class="cls-21" x1="19.37" y1="193.22" x2="26.5" y2="193.22"/><circle class="cls-10" cx="29" cy="193.64" r="7.5"/><text class="cls-18" transform="translate(44.77 149.13)"><tspan class="cls-3" x="0" y="0">1</tspan><tspan class="cls-8" x="5.13" y="0">/</tspan><tspan class="cls-3" x="8.56" y="0">1</tspan></text><text class="cls-13" transform="translate(44.77 173.02)"><tspan x="0" y="0">0/0</tspan></text><text class="cls-18" transform="translate(44.77 196.91)"><tspan class="cls-8" x="0" y="0">0/</tspan><tspan class="cls-3" x="8.56" y="0">1</tspan></text><text class="cls-18" transform="translate(70.91 149.13)"><tspan class="cls-3" x="0" y="0">1</tspan><tspan class="cls-8" x="5.13" y="0">/</tspan><tspan class="cls-3" x="8.56" y="0">1</tspan></text><text class="cls-18" transform="translate(70.91 173.02)"><tspan class="cls-8" x="0" y="0">0/</tspan><tspan class="cls-5" x="8.56" y="0">1</tspan></text><text class="cls-18" transform="translate(70.91 196.91)"><tspan class="cls-8" x="0" y="0">0/</tspan><tspan class="cls-3" x="8.56" y="0">1</tspan></text><rect class="cls-23" x="39.18" y="136.09" width="51" height="68"/><text class="cls-4" transform="translate(43.84 121.37)"><tspan x="0" y="0">Maternal </tspan><tspan x="-9.17" y="12">inherited (P1)</tspan></text><text class="cls-13" transform="translate(111.09 149.19)"><tspan x="0" y="0">0/0</tspan></text><text class="cls-18" transform="translate(111.09 173.08)"><tspan class="cls-5" x="0" y="0">1</tspan><tspan class="cls-8" x="5.13" y="0">/</tspan><tspan class="cls-5" x="8.56" y="0">1</tspan></text><text class="cls-18" transform="translate(111.09 196.97)"><tspan class="cls-8" x="0" y="0">0/</tspan><tspan class="cls-5" x="8.56" y="0">1</tspan></text><text class="cls-18" transform="translate(137.22 149.19)"><tspan class="cls-8" x="0" y="0">0/</tspan><tspan class="cls-3" x="8.56" y="0">1</tspan></text><text class="cls-18" transform="translate(137.22 173.08)"><tspan class="cls-5" x="0" y="0">1</tspan><tspan class="cls-8" x="5.13" y="0">/</tspan><tspan class="cls-5" x="8.56" y="0">1</tspan></text><text class="cls-18" transform="translate(137.22 196.97)"><tspan class="cls-8" x="0" y="0">0/</tspan><tspan class="cls-5" x="8.56" y="0">1</tspan></text><rect class="cls-22" x="105.5" y="136.14" width="51" height="68"/><text class="cls-6" transform="translate(110.99 121.37)"><tspan x="0" y="0">Paternal </tspan><tspan x="-10" y="12">inherited (P2)</tspan></text><text class="cls-13" transform="translate(244.62 149.19)"><tspan x="0" y="0">0/</tspan><tspan x="8.56" y="0">0</tspan></text><text class="cls-13" transform="translate(244.62 173.08)"><tspan x="0" y="0">0</tspan><tspan x="5.13" y="0">/</tspan><tspan x="8.56" y="0">0</tspan></text><text class="cls-18" transform="translate(244.62 196.97)"><tspan class="cls-8" x="0" y="0">0/</tspan><tspan class="cls-1" x="8.56" y="0">1</tspan></text><text class="cls-18" transform="translate(270.75 149.19)"><tspan class="cls-3" x="0" y="0">1</tspan><tspan class="cls-8" x="5.13" y="0">/</tspan><tspan class="cls-3" x="8.56" y="0">1</tspan></text><text class="cls-18" transform="translate(270.75 173.08)"><tspan class="cls-5" x="0" y="0">1</tspan><tspan class="cls-8" x="5.13" y="0">/</tspan><tspan class="cls-5" x="8.56" y="0">1</tspan></text><text class="cls-18" transform="translate(270.75 196.97)"><tspan class="cls-1" x="0" y="0">0</tspan><tspan class="cls-8" x="5.13" y="0">/</tspan><tspan class="cls-8" x="8.56" y="0">1</tspan></text><rect class="cls-24" x="239.03" y="136.14" width="51" height="68"/><text class="cls-2" transform="translate(240.07 121.37)"><tspan x="0" y="0">Mendelian </tspan><tspan x="2.52" y="12">Error(ME)</tspan></text><text class="cls-18" transform="translate(179.51 149.19)"><tspan class="cls-8" x="0" y="0">0/</tspan><tspan class="cls-3" x="8.56" y="0">1</tspan></text><text class="cls-18" transform="translate(179.51 173.08)"><tspan class="cls-8" x="0" y="0">0</tspan><tspan class="cls-8" x="5.13" y="0">/</tspan><tspan class="cls-5" x="8.56" y="0">1</tspan></text><text class="cls-13" transform="translate(179.51 196.97)"><tspan x="0" y="0">0/</tspan><tspan x="8.56" y="0">0</tspan></text><text class="cls-18" transform="translate(205.65 149.19)"><tspan class="cls-8" x="0" y="0">0/</tspan><tspan class="cls-3" x="8.56" y="0">1</tspan></text><text class="cls-18" transform="translate(205.65 173.08)"><tspan class="cls-8" x="0" y="0">0</tspan><tspan class="cls-8" x="5.13" y="0">/</tspan><tspan class="cls-5" x="8.56" y="0">1</tspan></text><text class="cls-13" transform="translate(205.65 196.97)"><tspan x="0" y="0">1/</tspan><tspan x="8.56" y="0">1</tspan></text><rect class="cls-21" x="173.93" y="136.14" width="51" height="68"/><text class="cls-11" transform="translate(185.2 120.37)"><tspan x="0" y="0">AOH </tspan><tspan x="-.84" y="12">signal</tspan></text><text class="cls-12" transform="translate(123.17 13.77)"><tspan x="0" y="0">G</tspan><tspan class="cls-20" x="9.33" y="0">A</tspan><tspan x="16.45" y="0">TK joint called VCF</tspan></text><rect class="cls-21" x="112.25" y=".5" width="141" height="18.64"/><text class="cls-12" transform="translate(93.37 46.77)"><tspan x="0" y="0">Genetic phasing biallelic SNV loci</tspan></text><rect class="cls-21" x="88.3" y="35.19" width="188.9" height="18.64"/><text class="cls-12" transform="translate(75.67 83.27)"><tspan x="0" y="0">Categorizing phased and unphased loci </tspan></text><rect class="cls-21" x="73.33" y="71.69" width="218.84" height="18.64"/><line class="cls-21" x1="177.5" y1="19.64" x2="177.5" y2="30.17"/><polygon class="cls-14" points="173.8 27.37 177.5 28.94 181.2 27.37 177.5 36.14 173.8 27.37"/><line class="cls-21" x1="178.86" y1="54.13" x2="178.86" y2="64.67"/><polygon class="cls-14" points="175.15 61.86 178.86 63.43 182.56 61.86 178.86 70.63 175.15 61.86"/><line class="cls-21" x1="179.86" y1="91.13" x2="179.86" y2="101.67"/><polygon class="cls-14" points="176.15 98.86 179.86 100.43 183.56 98.86 179.86 107.63 176.15 98.86"/><line class="cls-21" x1="8.65" y1="152.48" x2="8.65" y2="162.48"/><text class="cls-18" transform="translate(307.23 148.53)"><tspan class="cls-8" x="0" y="0">0/</tspan><tspan class="cls-3" x="8.56" y="0">1</tspan></text><text class="cls-19" transform="translate(306.17 172.42)"><tspan class="cls-9" x="0" y="0">0</tspan><tspan class="cls-9" x="5.13" y="0">/</tspan><tspan class="cls-7" x="8.56" y="0">1</tspan></text><text class="cls-18" transform="translate(307.23 196.31)"><tspan class="cls-8" x="0" y="0">0/</tspan><tspan class="cls-15" x="8.56" y="0">1</tspan></text><text class="cls-18" transform="translate(333.37 148.53)"><tspan class="cls-8" x="0" y="0">0</tspan><tspan class="cls-8" x="5.13" y="0">/</tspan><tspan class="cls-3" x="8.56" y="0">1</tspan></text><text class="cls-18" transform="translate(333.37 172.42)"><tspan class="cls-5" x="0" y="0">1</tspan><tspan class="cls-8" x="5.13" y="0">/</tspan><tspan class="cls-5" x="8.56" y="0">1</tspan></text><text class="cls-18" transform="translate(333.37 196.31)"><tspan class="cls-8" x="0" y="0">0</tspan><tspan class="cls-8" x="5.13" y="0">/</tspan><tspan class="cls-17" x="8.56" y="0">1</tspan></text><rect class="cls-25" x="301.65" y="135.48" width="51" height="68"/><text class="cls-16" transform="translate(317.98 120.71)"><tspan x="0" y="0">Not </tspan><tspan x="-7.79" y="12">Phased</tspan></text></svg>