<?xml version="1.0" encoding="UTF-8"?><svg id="Layer_1" xmlns="http://www.w3.org/2000/svg" xmlns:xlink="http://www.w3.org/1999/xlink" viewBox="0 0 247.71 225.35"><defs><style>.cls-1{letter-spacing:-.02em;}.cls-2{fill:url(#radial-gradient);}.cls-2,.cls-3,.cls-4,.cls-5,.cls-6{isolation:isolate;opacity:.47;}.cls-2,.cls-3,.cls-4,.cls-5,.cls-6,.cls-7,.cls-8,.cls-9,.cls-10,.cls-11{stroke-width:0px;}.cls-12{font-family:ArialMT, Arial;font-size:54.78px;}.cls-12,.cls-13{fill:#fff;}.cls-14{fill:#49a96a;stroke:#010101;stroke-width:.8px;}.cls-15{fill:#f7941d;stroke-width:10px;}.cls-15,.cls-13,.cls-16{stroke:#231f20;}.cls-15,.cls-16{stroke-miterlimit:10;}.cls-13{stroke-linecap:round;stroke-linejoin:round;stroke-width:2px;}.cls-3{fill:url(#radial-gradient-2);}.cls-4{fill:url(#radial-gradient-5);}.cls-5{fill:url(#radial-gradient-3);}.cls-6{fill:url(#radial-gradient-4);}.cls-7{fill:#4e4e4e;}.cls-8{fill:#58bd81;}.cls-9{fill:#414042;}.cls-10{fill:#231f20;}.cls-11{fill:#ed1c24;}.cls-16{fill:none;stroke-width:.5px;}</style><radialGradient id="radial-gradient" cx="120.8" cy="481.02" fx="120.8" fy="481.02" r="6.44" gradientTransform="translate(275.23 570.04) rotate(-30) scale(1 -1)" gradientUnits="userSpaceOnUse"><stop offset="0" stop-color="#f3f3f3"/><stop offset="1" stop-color="#f3f3f3" stop-opacity="0"/></radialGradient><radialGradient id="radial-gradient-2" cx="54.94" cy="499.84" fx="54.94" fy="499.84" r="6.44" gradientTransform="translate(360.18 548.78) rotate(-30) scale(1 -1)" xlink:href="#radial-gradient"/><radialGradient id="radial-gradient-3" cx="-11.39" cy="521.48" fx="-11.39" fy="521.48" r="6.44" gradientTransform="translate(447.46 530.34) rotate(-30) scale(1 -1)" xlink:href="#radial-gradient"/><radialGradient id="radial-gradient-4" cx="-101.97" cy="613.68" fx="-101.97" fy="613.68" r="6.44" gradientTransform="translate(528.95 479.35) rotate(-30) scale(.9 -.83)" xlink:href="#radial-gradient"/><radialGradient id="radial-gradient-5" cx="-234.66" cy="748.91" fx="-234.66" fy="748.91" r="6.44" gradientTransform="translate(602.42 427.26) rotate(-30) scale(.72 -.65)" xlink:href="#radial-gradient"/></defs><polygon class="cls-15" points="182.93 5 64.78 5 5.7 112.67 64.78 220.35 182.93 220.35 242.01 112.67 182.93 5"/><text class="cls-12" transform="translate(30.28 129.41)"><tspan class="cls-1" x="0" y="0">V</tspan><tspan x="35.55" y="0">izCNV</tspan></text><path id="path1875" class="cls-14" d="m189.34,46.12c-11.9,2.64-24.03.13-35.98-.72-5.4-1.98-60.91,4.63-80.26,15.4-3.49,1.25-11.39,11.97-13.52,5.81,1.73-5.77,9.61-12.21,12.6-17.23,10.08-10.89,23.95-17.71,38.18-21.4,16.21-4.25,33.27-1.96,49.27,2.1,11.09,2.71,21.25,8.44,29.72,16.05Z"/><g id="g3055"><path id="path3057" class="cls-8" d="m96.41,41.57c1.78,3.08.72,7.02-2.36,8.8s-7.02.72-8.8-2.36-.72-7.02,2.36-8.8,7.02-.72,8.8,2.36Z"/><path id="path3059" class="cls-2" d="m96.41,41.57c1.78,3.08.72,7.02-2.36,8.8s-7.02.72-8.8-2.36-.72-7.02,2.36-8.8,7.02-.72,8.8,2.36Z"/></g><g id="g3075"><path id="path3077" class="cls-8" d="m114.91,36.94c1.78,3.08.72,7.02-2.36,8.8s-7.02.72-8.8-2.36-.72-7.02,2.36-8.8,7.02-.72,8.8,2.36Z"/><path id="path3079" class="cls-3" d="m114.91,36.94c1.78,3.08.72,7.02-2.36,8.8s-7.02.72-8.8-2.36-.72-7.02,2.36-8.8,7.02-.72,8.8,2.36Z"/></g><g id="g3069"><path id="path3071" class="cls-8" d="m133.92,32.92c1.78,3.08.72,7.02-2.36,8.8s-7.02.72-8.8-2.36-.72-7.02,2.36-8.8,7.02-.72,8.8,2.36Z"/><path id="path3073" class="cls-5" d="m133.92,32.92c1.78,3.08.72,7.02-2.36,8.8s-7.02.72-8.8-2.36-.72-7.02,2.36-8.8,7.02-.72,8.8,2.36Z"/></g><g id="g3063"><path id="path3065" class="cls-8" d="m152.69,34.57c1.47,2.55.42,5.9-2.34,7.5s-6.19.82-7.66-1.73-.42-5.9,2.34-7.5,6.19-.82,7.66,1.73Z"/><path id="path3067" class="cls-6" d="m152.69,34.57c1.47,2.55.42,5.9-2.34,7.5s-6.19.82-7.66-1.73-.42-5.9,2.34-7.5,6.19-.82,7.66,1.73Z"/></g><g id="g3089"><path id="path3091" class="cls-8" d="m166.54,37.81c1.16,2.01.3,4.69-1.93,5.97s-4.97.7-6.13-1.32-.3-4.69,1.93-5.97,4.97-.7,6.13,1.32Z"/><path id="path3093" class="cls-4" d="m166.54,37.81c1.16,2.01.3,4.69-1.93,5.97s-4.97.7-6.13-1.32-.3-4.69,1.93-5.97,4.97-.7,6.13,1.32Z"/></g><rect id="rect3780" class="cls-9" x="154.71" y="153.99" width="3.51" height="9.45"/><rect id="rect3782" class="cls-9" x="151.25" y="153.99" width="1.38" height="9.45"/><rect id="rect3784" class="cls-9" x="138.75" y="153.99" width="10.7" height="9.45"/><rect id="rect3786" class="cls-9" x="110.81" y="153.99" width="3.51" height="9.45"/><path id="rect2985" class="cls-13" d="m79.05,160v-2.36c0-2.02,1.59-3.65,3.57-3.65h35.94s2.8,2.15,4.52,2.17c1.73.03,4.92-2.17,4.92-2.17h33.41c1.98,0,3.57,1.63,3.57,3.65v2.36c0,2.02-1.59,3.65-3.57,3.65h-33.41s-2.89-2.44-4.66-2.45c-1.77-.01-4.79,2.45-4.79,2.45h-35.94c-1.98,0-3.57-1.63-3.57-3.65h0Z"/><rect id="rect2987" class="cls-7" x="88.73" y="154.52" width="17.61" height="8.37"/><rect id="rect3757" class="cls-11" x="154.71" y="154.52" width="3.51" height="8.37"/><rect id="rect3759" class="cls-7" x="151.25" y="154.52" width="1.38" height="8.37"/><rect id="rect3761" class="cls-7" x="138.75" y="154.52" width="10.7" height="8.37"/><rect id="rect3763" class="cls-7" x="110.81" y="154.52" width="3.51" height="8.37"/><rect id="rect3765" class="cls-7" x="85.8" y="154.52" width="1.92" height="8.37"/><rect id="rect3788" class="cls-9" x="85.8" y="154.52" width="1.92" height="8.37"/><rect id="rect3778" class="cls-9" x="88.73" y="154.52" width="17.61" height="8.37"/><path id="rect2985-2" class="cls-13" d="m79.3,179.13v-2.36c0-2.02,1.7-3.65,3.81-3.65h38.38s2.99,2.15,4.83,2.17c1.84.03,5.26-2.17,5.26-2.17h35.68c2.11,0,3.81,1.63,3.81,3.65v2.36c0,2.02-1.7,3.65-3.81,3.65h-35.68s-3.09-2.44-4.97-2.45c-1.88-.01-5.11,2.45-5.11,2.45h-38.38c-2.11,0-3.81-1.63-3.81-3.65h0Z"/><rect id="rect2987-2" class="cls-7" x="88.99" y="173.65" width="17.61" height="8.37"/><rect id="rect3765-2" class="cls-7" x="86.06" y="173.65" width="1.92" height="8.37"/><rect id="rect3757-2" class="cls-11" x="154.97" y="173.74" width="3.51" height="8.37"/><rect id="rect3759-2" class="cls-7" x="151.51" y="173.74" width="1.38" height="8.37"/><rect id="rect3761-2" class="cls-7" x="139.01" y="173.74" width="10.7" height="8.37"/><rect id="rect3763-2" class="cls-7" x="111.07" y="173.74" width="3.51" height="8.37"/><rect id="rect3788-2" class="cls-9" x="86.06" y="173.95" width="1.92" height="7.95"/><rect id="rect3778-2" class="cls-9" x="88.99" y="173.74" width="17.61" height="8.37"/><rect id="rect3757-3" class="cls-11" x="159.6" y="173.74" width="3.51" height="8.37"/><line class="cls-16" x1="156.23" y1="165.17" x2="156.23" y2="170.25"/><polygon class="cls-10" points="156.23 172.02 155.22 169.53 156.23 170.12 157.25 169.53 156.23 172.02"/><line class="cls-16" x1="157.56" y1="165.36" x2="160.62" y2="170.2"/><polygon class="cls-10" points="161.56 171.69 159.37 170.13 160.55 170.09 161.09 169.04 161.56 171.69"/></svg>